<svg xmlns="http://www.w3.org/2000/svg" xmlns:xlink="http://www.w3.org/1999/xlink" width="1539.504" height="853.516" class="st26" color-interpolation-filters="sRGB" viewBox="0 0 1154.62 640.137" xml:space="preserve"><style type="text/css">.st1,.st2{fill:#fff;stroke:none;stroke-linecap:round;stroke-linejoin:round;stroke-width:1.4}.st2{stroke:#000;stroke-width:.25}.st3{fill:#000;font-family:Arial;font-size:.833336em}.st4{fill:#f2f2f2;stroke:#000;stroke-linecap:round;stroke-linejoin:round;stroke-width:.25}.st5{font-size:1em}.st6,.st7{stroke-linecap:round;stroke-linejoin:round}.st6{fill:#eeeaf2;stroke:#000;stroke-width:.25}.st7{fill:none;stroke-dasharray:0,1.2;stroke-width:.24}.st7,.st8,.st9{stroke:#ddd}.st8{fill:#ddd;fill-opacity:1;stroke-opacity:1;stroke-width:.08695652173913}.st9{fill:none;stroke-linecap:round;stroke-linejoin:round;stroke-width:.24}.st10{fill:#fff}.st10,.st11{stroke:#000;stroke-linecap:round;stroke-linejoin:round;stroke-width:.125}.st12{fill:#000;font-family:Arial;font-size:.75em}.st13{stroke-width:.25}.st13,.st14,.st15{stroke:#000;stroke-linecap:round;stroke-linejoin:round}.st14{fill:#fff;stroke-width:.46}.st15{marker-end:url(#mrkr5-101);stroke-width:.72}.st16{fill:#000;fill-opacity:1;stroke:#000;stroke-opacity:1;stroke-width:.22222222222222}.st17,.st18{fill:#000;font-family:Arial;font-size:.499992em}.st18{font-size:.666664em}.st19{marker-end:url(#mrkr5-135);stroke:#000;stroke-linecap:round;stroke-linejoin:round;stroke-width:.25}.st20{fill:#000;fill-opacity:1;stroke:#000;stroke-opacity:1;stroke-width:.090252707581227}.st21,.st22{stroke-width:.25}.st21{marker-start:url(#mrkr5-169);stroke:#000;stroke-linecap:round;stroke-linejoin:round}.st22{fill:none;stroke:none}.st22,.st23,.st24,.st25{stroke-linecap:round;stroke-linejoin:round}.st23{fill:#000;stroke:none;stroke-width:.75}.st24,.st25{stroke:#000;stroke-width:.72}.st24{marker-start:url(#mrkr5-239)}.st25{marker-end:url(#mrkr5-246)}.st26{fill:none;fill-rule:evenodd;font-size:12px;overflow:visible;stroke-linecap:square;stroke-miterlimit:3}</style><defs id="Markers"><g id="lend13"><path d="M 3 1 L 0 0 L 3 -1 L 3 1" style="stroke:none"/></g><marker id="mrkr13-17" class="st8" markerUnits="strokeWidth" orient="auto" overflow="visible" refX="-34.5"><use transform="scale(-11.5,-11.5)" xlink:href="#lend13"/></marker><g id="lend5"><path d="M 2 1 L 0 0 L 1.98117 -0.993387 C 1.67173 -0.364515 1.67301 0.372641 1.98465 1.00043" style="stroke:none"/></g><marker id="mrkr5-101" class="st16" markerUnits="strokeWidth" orient="auto" overflow="visible" refX="0"><use transform="scale(-4.5,-4.5)" xlink:href="#lend5"/></marker><marker id="mrkr5-135" class="st20" markerUnits="strokeWidth" orient="auto" overflow="visible" refX="-19.39"><use transform="scale(-11.08,-11.08)" xlink:href="#lend5"/></marker><marker id="mrkr5-169" class="st20" markerUnits="strokeWidth" orient="auto" overflow="visible" refX="17.95"><use transform="scale(11.08)" xlink:href="#lend5"/></marker><marker id="mrkr5-239" class="st16" markerUnits="strokeWidth" orient="auto" overflow="visible" refX="7.375"><use transform="scale(4.5)" xlink:href="#lend5"/></marker><marker id="mrkr5-246" class="st16" markerUnits="strokeWidth" orient="auto" overflow="visible" refX="-7.375"><use transform="scale(-4.5,-4.5)" xlink:href="#lend5"/></marker></defs><g><title>Page-1</title><g id="shape2861-1" transform="translate(0.7,-64.0035)"><title>agent.2861</title><path d="M0 640.14 L1123.37 640.14 L1123.37 64.7 L0 64.7 L0 640.14 Z" class="st1"/></g><g id="shape2797-3" transform="translate(319.598,-92.3499)"><title>agent.2797</title><desc>Mobile OS</desc><path d="M0 640.14 L772.44 640.14 L772.44 222.03 L0 222.03 L0 640.14 Z" class="st2"/><text x="2.8" y="233.83" class="st3">Mobile OS</text></g><g id="shape2823-6" transform="translate(702.275,-106.523)"><title>agent.2823</title><desc>Other MobileOSFeatures</desc><path d="M0 640.14 L375.59 640.14 L375.59 519.66 L0 519.66 L0 640.14 Z" class="st4"/><text x="347.78" y="622.34" class="st3">Other <tspan x="289.42" class="st5" dy="1.2em">MobileOSFeatures</tspan></text></g><g id="shape2628-10" transform="translate(347.944,-106.523)"><title>agent.2628</title><desc>Exposure Notification Framework</desc><path d="M0 640.14 L340.16 640.14 L340.16 519.66 L0 519.66 L0 640.14 Z" class="st6"/><text x="96.44" y="634.34" class="st3">Exposure Notification Framework</text></g><g id="group2308-13" transform="translate(1774.69,502.432) rotate(90)"><title>3 dots.2308</title><g id="shape2309-14"><title>Sheet.2309</title><path d="M0 640.14 L19.84 640.14 L19.84 628.8 L0 628.8 L0 640.14 Z" class="st7"/></g><g id="shape2313-18" transform="translate(3.82677,-4.53543)"><title>Sheet.2313</title><ellipse cx="1.134" cy="639.003" class="st9" rx="1.134" ry="1.134"/></g><g id="shape2314-20" transform="translate(8.7874,-4.53543)"><title>Sheet.2314</title><ellipse cx="1.134" cy="639.003" class="st9" rx="1.134" ry="1.134"/></g><g id="shape2315-22" transform="translate(13.748,-4.53543)"><title>Sheet.2315</title><ellipse cx="1.134" cy="639.003" class="st9" rx="1.134" ry="1.134"/></g></g><g id="group2374-24" transform="translate(1349.5,611.566) rotate(90)"><title>3 dots.2374</title><g id="shape2375-25"><title>Sheet.2375</title><path d="M0 640.14 L19.84 640.14 L19.84 628.8 L0 628.8 L0 640.14 Z" class="st7"/></g><g id="shape2379-28" transform="translate(3.82677,-4.53543)"><title>Sheet.2379</title><ellipse cx="1.134" cy="639.003" class="st9" rx="1.134" ry="1.134"/></g><g id="shape2380-30" transform="translate(8.7874,-4.53543)"><title>Sheet.2380</title><ellipse cx="1.134" cy="639.003" class="st9" rx="1.134" ry="1.134"/></g><g id="shape2381-32" transform="translate(13.748,-4.53543)"><title>Sheet.2381</title><ellipse cx="1.134" cy="639.003" class="st9" rx="1.134" ry="1.134"/></g></g><g id="group2390-34" transform="translate(1754.85,611.566) rotate(90)"><title>3 dots.2390</title><g id="shape2391-35"><title>Sheet.2391</title><path d="M0 640.14 L19.84 640.14 L19.84 628.8 L0 628.8 L0 640.14 Z" class="st7"/></g><g id="shape2395-38" transform="translate(3.82677,-4.53543)"><title>Sheet.2395</title><ellipse cx="1.134" cy="639.003" class="st9" rx="1.134" ry="1.134"/></g><g id="shape2396-40" transform="translate(8.7874,-4.53543)"><title>Sheet.2396</title><ellipse cx="1.134" cy="639.003" class="st9" rx="1.134" ry="1.134"/></g><g id="shape2397-42" transform="translate(13.748,-4.53543)"><title>Sheet.2397</title><ellipse cx="1.134" cy="639.003" class="st9" rx="1.134" ry="1.134"/></g></g><g id="shape2423-44" transform="translate(346.738,-255.342)"><title>agent</title><desc>Native Mobile Application</desc><path d="M0 640.14 L729.92 640.14 L729.92 413.36 L0 413.36 L0 640.14 Z" class="st6"/><text x="2.8" y="425.16" class="st3">Native Mobile Application</text></g><g id="group2535-47" transform="translate(21.9598,-439.594)"><title>human agent.2535</title><desc>Mobile User</desc><g id="shape2536-48"><title>Sheet.2536</title><rect width="22.677" height="56.693" x="0" y="583.444" class="st2"/></g><g id="group2537-50" transform="translate(5.10236,-16.8189)"><title>Sheet.2537</title><g id="shape2538-51" transform="translate(3.42992,-16.9101)"><title>Sheet.2538</title><path d="M0 637.14 A2.8063 2.99339 0 0 1 5.61 637.14 A2.8063 2.99339 0 0 1 0 637.14 Z" class="st10"/></g><g id="shape2539-53" transform="translate(646.373,623.226) rotate(90)"><title>Sheet.2539</title><path d="M0 640.14 L9.57 640.14" class="st11"/></g><g id="shape2540-56" transform="translate(493.969,1047.4) rotate(130.366)"><title>Sheet.2540</title><path d="M0 640.14 L9.63 640.14" class="st11"/></g><g id="shape2541-59" transform="translate(493.969,218.202) rotate(49.6338)"><title>Sheet.2541</title><path d="M0 640.14 L9.63 640.14" class="st11"/></g><g id="shape2542-62" transform="translate(329.387,75.0583) rotate(30.3191) scale(-1,1)"><title>Sheet.2542</title><path d="M0 640.14 L7.22 640.14" class="st11"/></g><g id="shape2543-65" transform="translate(329.387,1180.23) rotate(-30.3191) scale(1,-1)"><title>Sheet.2543</title><path d="M0 640.14 L7.22 640.14" class="st11"/></g></g><g id="shape2535-68"><text x="-15.34" y="653.06" class="st3">Mobile User</text></g></g><g id="shape2560-70" transform="translate(532.196,-131.326)"><title>storage.2560</title><desc>Rolling Proximity Identifiers</desc><rect width="148.819" height="21.26" x="0" y="618.877" class="st2" rx="10.63" ry="10.63"/><text x="20.14" y="632.21" class="st12">Rolling Proximity Identifiers</text></g><g id="shape2622-73" transform="translate(467.111,-166.759)"><title>agent.2622</title><desc>ExposureRisk Calculation</desc><path d="M0 640.14 L99.21 640.14 L99.21 594.07 L0 594.07 L0 640.14 Z" class="st2"/><text x="21.85" y="614.4" class="st12">ExposureRisk <tspan x="27.34" class="st5" dy="1.2em">Calculation</tspan></text></g><g id="shape2635-77" transform="translate(358.574,-131.326)"><title>storage.2635</title><desc>Temporary Exposure Keys</desc><rect width="162.992" height="21.26" x="0" y="618.877" class="st2" rx="10.63" ry="10.63"/><text x="28.23" y="632.21" class="st12">Temporary Exposure Keys</text></g><g id="shape2687-80" transform="translate(78.6528,-92.3499)"><title>agent.2687</title><desc>Other Mobile Devices</desc><path d="M0 640.14 L170.08 640.14 L170.08 583.44 L0 583.44 L0 640.14 Z" class="st6"/><text x="37.24" y="634.34" class="st3">Other Mobile Devices</text></g><g id="shape2688-83" transform="translate(87.8654,-115.027)"><title>agent.2688</title><desc>iOS</desc><path d="M0 640.14 L47.48 640.14 L47.48 613.21 L0 613.21 L0 640.14 Z" class="st2"/><text x="15.41" y="629.67" class="st3">iOS</text></g><g id="group2692-86" transform="translate(248.731,-120.696)"><title>hor/ver channel.2692</title><desc>Bluetooth Broadcast</desc><g id="shape2693-87" transform="translate(-4.19664E-014,-0.708661)"><title>connection line</title><path d="M0 640.14 L29.76 640.14" class="st13"/></g><g id="shape2694-90" transform="translate(41.1024,-0.708661)"><title>connection line.7</title><path d="M0 640.14 L58.11 640.14" class="st13"/></g><g id="shape2695-93" transform="translate(29.7638,4.96063)"><title>channel.18</title><ellipse cx="5.669" cy="634.467" class="st14" rx="5.669" ry="5.669"/></g><g id="shape2696-95" transform="translate(25.5118,1268.23) scale(1,-1)"><title>request-response symbol</title><desc>R</desc><path d="M14.74 640.14 L19.84 640.14" class="st15"/><path d="M5.1 640.14 L0 640.14" class="st15"/><text x="7.75" y="-638.76" class="st17" transform="scale(1,-1)">R</text></g><g id="shape2692-105"><text x="18.53" y="655.45" class="st18">Bluetooth <tspan x="17.42" class="st5" dy="1.2em">Broadcast</tspan></text></g></g><g id="shape2726-108" transform="translate(357.828,-166.759)"><title>agent.2726</title><desc>Manage</desc><path d="M0 640.14 L99.21 640.14 L99.21 594.07 L0 594.07 L0 640.14 Z" class="st2"/><text x="33.34" y="619.8" class="st12">Manage</text></g><g id="shape2727-111" transform="translate(718.22,-306.72)"><title>agent.2727</title><desc>Test Result Access</desc><path d="M0 640.14 L166.54 640.14 L166.54 521.44 L0 521.44 L0 640.14 Z" class="st4"/><text x="57.98" y="533.24" class="st3">Test Result <tspan x="67.15" class="st5" dy="1.2em">Access</tspan></text></g><g id="shape2728-115" transform="translate(537.511,-305.834)"><title>agent.2728</title><desc>Exposure Risk Level Calculation</desc><path d="M0 640.14 L166.54 640.14 L166.54 520.55 L0 520.55 L0 640.14 Z" class="st4"/><text x="37.69" y="532.35" class="st3">Exposure Risk Level <tspan x="58.53" class="st5" dy="1.2em">Calculation</tspan></text></g><g id="shape2729-119" transform="translate(358.574,-305.834)"><title>agent.2729</title><desc>Exposure Tracing Management</desc><path d="M0 640.14 L166.54 640.14 L166.54 520.55 L0 520.55 L0 640.14 Z" class="st4"/><text x="44.08" y="532.35" class="st3">Exposure Tracing <tspan x="54.08" class="st5" dy="1.2em">Management</tspan></text></g><g id="shape2730-123" transform="translate(898.891,-306.72)"><title>agent.2730</title><desc>Diagnosis Key Submission</desc><path d="M0 640.14 L166.54 640.14 L166.54 521.44 L0 521.44 L0 640.14 Z" class="st4"/><text x="24.07" y="533.24" class="st3">Diagnosis Key Submission</text></g><g id="shape2752-126" transform="translate(576.954,-166.759)"><title>agent.2752</title><desc>Temporary Exposure Key Access</desc><path d="M0 640.14 L102.2 640.14 L102.2 594.07 L0 594.07 L0 640.14 Z" class="st2"/><text x="9.08" y="614.4" class="st12">Temporary Exposure <tspan x="27.59" class="st5" dy="1.2em">Key Access</tspan></text></g><g id="shape2793-130" transform="translate(-21.1295,334.302) rotate(-90)"><title>vert/hor (rw) access.2793</title><desc>Exposure Risk Calculation (Configuration &amp; positive DiagnosisK...</desc><path d="M0 640.14 L-73.99 640.14" class="st19"/><text x="603.57" y="14.95" class="st18" transform="rotate(90)">Exposure <tspan x="580.01" class="st5" dy="1.2em">Risk Calculation</tspan> <tspan x="494.19" class="st5" dy="1.2em">(</tspan>Configuration &amp; positive DiagnosisKeys)</text></g><g id="shape2798-139" transform="translate(546.369,-338.964)"><title>storage</title><desc>DiagnosisKeyCache</desc><rect width="148.819" height="17.008" x="0" y="623.129" class="st2" rx="8.504" ry="8.504"/><text x="33.89" y="634.33" class="st12">DiagnosisKeyCache</text></g><g id="shape2800-142" transform="translate(546.369,-314.87)"><title>storage.2800</title><desc>ExposureDetectionResult</desc><rect width="148.819" height="17.008" x="0" y="623.129" class="st2" rx="8.504" ry="8.504"/><text x="23.63" y="634.33" class="st12">ExposureDetectionResult</text></g><g id="shape2805-145" transform="translate(727.078,-315.081)"><title>storage.2805</title><desc>RegristrationToken</desc><rect width="148.819" height="17.008" x="0" y="623.129" class="st2" rx="8.504" ry="8.504"/><text x="36.39" y="634.33" class="st12">RegristrationToken</text></g><g id="shape2808-148" transform="translate(940.525,-306.72)"><title>vert. (rw) L,S access</title><desc>Read Diagnosis Keys</desc><path d="M0 640.14 L0 654.66 A8.50394 8.50394 0 0 1 -8.5 663.17 L-279.35 663.17 A8.50394 8.50394 -180 0 0 -287.86 671.67 L-287.86 715.01" class="st19"/><text x="-277.4" y="662.02" class="st18">Read Diagnosis Keys</text></g><g id="shape2811-154" transform="translate(718.71,-113.61)"><title>agent.2811</title><desc>Local Notification</desc><path d="M0 640.14 L113.39 640.14 L113.39 533.84 L0 533.84 L0 640.14 Z" class="st6"/><text x="18.62" y="634.34" class="st3">Local Notification</text></g><g id="shape2817-157" transform="translate(846.618,-170.303)"><title>agent.2817</title><desc>Camera</desc><path d="M0 640.14 L61.17 640.14 L61.17 590.53 L0 590.53 L0 640.14 Z" class="st6"/><text x="12.8" y="618.33" class="st3">Camera</text></g><g id="shape2818-160" transform="translate(917.484,-170.303)"><title>agent.2818</title><desc>BackgroundScheduling</desc><path d="M0 640.14 L61.17 640.14 L61.17 590.53 L0 590.53 L0 640.14 Z" class="st6"/><text x="3.9" y="612.33" class="st3">Background <tspan x="5.84" class="st5" dy="1.2em">Scheduling</tspan></text></g><g id="shape2819-164" transform="translate(251.988,413.141) rotate(-90)"><title>vert/hor (rw) access.2819</title><desc>Uses</desc><path d="M4.49 640.14 L4.85 640.14 L28.35 640.14" class="st21"/><text x="646.08" y="-11.77" class="st18" transform="rotate(90)">Uses</text></g><g id="shape2821-171" transform="translate(988.35,-170.303)"><title>agent.2821</title><desc>Networking</desc><path d="M0 640.14 L61.17 640.14 L61.17 590.53 L0 590.53 L0 640.14 Z" class="st6"/><text x="5.57" y="618.33" class="st3">Networking</text></g><g id="shape2822-174" transform="translate(846.618,-113.61)"><title>agent.2822</title><desc>Storage</desc><path d="M0 640.14 L61.17 640.14 L61.17 590.53 L0 590.53 L0 640.14 Z" class="st6"/><text x="13.07" y="618.33" class="st3">Storage</text></g><g id="shape2824-177" transform="translate(917.484,-113.61)"><title>agent.2824</title><desc>Encryption</desc><path d="M0 640.14 L61.17 640.14 L61.17 590.53 L0 590.53 L0 640.14 Z" class="st6"/><text x="6.96" y="618.33" class="st3">Encryption</text></g><g id="shape2826-180" transform="translate(57.3929,-475.027)"><title>hor/vert (rw) access</title><path d="M0 640.14 L285.7 640.14" class="st19"/></g><g id="shape2829-185" transform="translate(57.3929,-475.027)"><title>hor. (rw) L,S access</title><path d="M0 640.14 L12.76 640.14 A8.50394 8.50394 0 0 1 21.26 648.64 L21.26 667.07 A8.50394 8.50394 -180 0 0 29.76 675.57 L285.7 675.57" class="st19"/></g><g id="shape2830-190" transform="translate(57.3929,-475.027)"><title>hor. (rw) L,S access.2830</title><path d="M0 640.14 L12.76 640.14 A8.50394 8.50394 0 0 1 21.26 648.64 L21.26 702.5 A8.50394 8.50394 -180 0 0 29.76 711 L285.7 711" class="st19"/></g><g id="shape2831-195" transform="translate(57.3929,-475.027)"><title>hor. (rw) L,S access.2831</title><path d="M0 640.14 L12.76 640.14 A8.50394 8.50394 0 0 1 21.26 648.64 L21.26 741.62 A8.50394 8.50394 -180 0 0 29.76 750.12 L285.7 750.12" class="st19"/></g><g id="shape2835-200" transform="translate(92.4008,-473.317)"><title>Sheet.2835</title><desc>Expuosure Tracing Management</desc><rect width="135.071" height="11.48" x="0" y="628.656" class="st22"/><text x="4" y="636.8" class="st18">Expuosure Tracing Management</text></g><g id="shape2836-203" transform="translate(93.0386,-401.473)"><title>Sheet.2836</title><desc>Test Result Access (QR-Code/ teleTAN)</desc><rect width="155.693" height="14.173" x="0" y="625.963" class="st22"/><text x="4" y="635.45" class="st18">Test Result Access (QR-Code/ teleTAN)</text></g><g id="shape2837-206" transform="translate(92.826,-437.395)"><title>Sheet.2837</title><desc>Exposure Risk Level Calculation</desc><rect width="184.252" height="12.189" x="0" y="627.948" class="st22"/><text x="4" y="636.44" class="st18">Exposure Risk Level Calculation</text></g><g id="shape2838-209" transform="translate(92.826,-365.062)"><title>Sheet.2838</title><desc>Submit Diagnosis Key</desc><rect width="141.732" height="14.173" x="0" y="625.963" class="st22"/><text x="4" y="635.45" class="st18">Submit Diagnosis Key</text></g><g id="shape2753-212" transform="translate(319.598,-531.72)"><title>agent.2753</title><desc>Server Infrastructure</desc><path d="M0 640.14 L772.44 640.14 L772.44 576.36 L0 576.36 L0 640.14 Z" class="st6"/><text x="2.8" y="588.16" class="st3">Server Infrastructure</text></g><g id="shape2843-215" transform="translate(184.952,-115.027)"><title>agent.2843</title><desc>Android</desc><path d="M0 640.14 L49.61 640.14 L49.61 613.21 L0 613.21 L0 640.14 Z" class="st2"/><text x="7.57" y="629.67" class="st3">Android</text></g><g id="group2846-218" transform="translate(152.354,-122.114)"><title>3 dots</title><g id="shape2847-219"><title>Sheet.2847</title><path d="M0 640.14 L11.34 640.14 L11.34 628.8 L0 628.8 L0 640.14 Z" class="st7"/></g><g id="shape2848-222" transform="translate(7.37008,-4.53543)"><title>Sheet.2848</title><ellipse cx="1.134" cy="639.003" class="st23" rx="1.134" ry="1.134"/></g><g id="shape2849-224" transform="translate(4.53543,-4.53543)"><title>Sheet.2849</title><ellipse cx="1.134" cy="639.003" class="st23" rx="1.134" ry="1.134"/></g><g id="shape2850-226" transform="translate(1.70079,-4.53543)"><title>Sheet.2850</title><ellipse cx="1.134" cy="639.003" class="st23" rx="1.134" ry="1.134"/></g><g id="shape2851-228" transform="translate(1.70079,-4.53543)"><title>Sheet.2851</title><ellipse cx="1.134" cy="639.003" class="st9" rx="1.134" ry="1.134"/></g><g id="shape2852-230" transform="translate(4.53543,-4.53543)"><title>Sheet.2852</title><ellipse cx="1.134" cy="639.003" class="st9" rx="1.134" ry="1.134"/></g><g id="shape2853-232" transform="translate(7.37008,-4.53543)"><title>Sheet.2853</title><ellipse cx="1.134" cy="639.003" class="st9" rx="1.134" ry="1.134"/></g></g><g id="shape2855-234" transform="translate(875.897,-323.883)"><title>hor/vert (rw) access.2855</title><path d="M5.31 640.14 L5.67 640.14 L24.8 640.14" class="st24"/></g><g id="shape2856-240" transform="translate(-199.181,413.141) rotate(-90)"><title>vert/hor mod.access</title><desc>Activate, Deactivate &amp; Tracing Status</desc><path d="M0 636.73 A154.822 154.822 0 0 1 73.33 635.39 L73.68 635.48" class="st25"/><path d="M78.84 643.54 A154.822 154.822 0 0 1 5.51 644.88 L5.16 644.8" class="st25"/><text x="555.41" y="-59.09" class="st18" transform="rotate(90)">Activate, Deactivate <tspan x="560.08" class="st5" dy="1.2em">&amp; </tspan>Tracing Status</text></g><g id="shape2857-251" transform="translate(365.661,-313.844)"><title>storage.2857</title><desc>TracingTimeNotActiveContext</desc><rect width="148.819" height="17.008" x="0" y="623.129" class="st2" rx="8.504" ry="8.504"/><text x="14.64" y="634.33" class="st12">TracingTimeNotActiveContext</text></g><g id="shape2858-254" transform="translate(575.47,-538.807)"><title>agent.2858</title><desc>CWA-Distribution Service</desc><path d="M0 640.14 L102.2 640.14 L102.2 594.07 L0 594.07 L0 640.14 Z" class="st2"/><text x="16.59" y="614.4" class="st12">CWA-Distribution <tspan x="36.09" class="st5" dy="1.2em">Service</tspan></text></g><g id="shape2859-258" transform="translate(719.283,-538.807)"><title>agent.2859</title><desc>CWA-Verification Service</desc><path d="M0 640.14 L235.09 640.14 L235.09 594.07 L0 594.07 L0 640.14 Z" class="st2"/><text x="83.29" y="614.4" class="st12">CWA-Verification <tspan x="102.54" class="st5" dy="1.2em">Service</tspan></text></g><g id="group2771-262" transform="translate(192.532,101.33) rotate(-90)"><title>ver/hor channel.2771</title><desc>Access TestResult (registrationToken)</desc><g id="shape2772-263" transform="translate(4.79616E-014,1280.27) rotate(180)"><title>connection line</title><path d="M0 640.14 L85.04 640.14" class="st13"/></g><g id="shape2773-266" transform="translate(-96.378,1280.27) rotate(180)"><title>connection line.7</title><path d="M0 640.14 L17.01 640.14" class="st13"/></g><g id="shape2774-269" transform="translate(-96.378,5.66929)"><title>channel.18</title><ellipse cx="5.669" cy="634.467" class="st14" rx="5.669" ry="5.669"/></g><g id="shape2775-271" transform="translate(-103.465,1294.45) scale(1,-1)"><title>request-response symbol</title><desc>R</desc><path d="M14.74 640.14 L19.84 640.14" class="st15"/><text x="-642.73" y="-8.12" class="st17" transform="rotate(90) scale(-1,1)">R</text></g><g id="shape2771-277"><text x="606.51" y="81.38" class="st18" transform="rotate(90)">Access <tspan x="594.06" class="st5" dy="1.2em">TestResult</tspan> <tspan x="565.16" class="st5" dy="1.2em">(</tspan>registrationToken)</text></g></g><g id="group2761-281" transform="translate(-16.4632,101.33) rotate(-90)"><title>ver/hor channel.2761</title><desc>Read DiagnosisKeysInfectedUsers ExposureRiskCalculationConfig...</desc><g id="shape2762-282" transform="translate(4.79616E-014,1283.35) rotate(180)"><title>connection line</title><path d="M0 640.14 L86.12 640.14" class="st13"/></g><g id="shape2763-285" transform="translate(-97.4578,1283.35) rotate(180)"><title>connection line.7</title><path d="M0 640.14 L15.93 640.14" class="st13"/></g><g id="shape2764-288" transform="translate(-97.4578,8.74637)"><title>channel.18</title><ellipse cx="5.669" cy="634.467" class="st14" rx="5.669" ry="5.669"/></g><g id="shape2765-290" transform="translate(-104.544,1297.9) scale(1,-1)"><title>request-response symbol</title><desc>R</desc><path d="M14.74 640.14 L19.84 640.14" class="st15"/><text x="-642.73" y="-8.12" class="st17" transform="rotate(90) scale(-1,1)">R</text></g><g id="shape2761-296"><text x="616.19" y="82.32" class="st18" transform="rotate(90)">Read <tspan x="533.04" class="st5" dy="1.2em">DiagnosisKeysInfectedUsers</tspan> <tspan x="498.79" class="st5" dy="1.2em">ExposureRiskCalculationConfiguration</tspan></text></g></g><g id="group2781-300" transform="translate(297.254,101.33) rotate(-90)"><title>ver/hor channel.2781</title><desc>Access TAN (registrationToken)</desc><g id="shape2782-301" transform="translate(4.79616E-014,1273.63) rotate(180)"><title>connection line</title><path d="M0 640.14 L86.12 640.14" class="st13"/></g><g id="shape2783-304" transform="translate(-97.4578,1273.63) rotate(180)"><title>connection line.7</title><path d="M0 640.14 L15.93 640.14" class="st13"/></g><g id="shape2784-307" transform="translate(-97.4578,-0.974409)"><title>channel.18</title><ellipse cx="5.669" cy="634.467" class="st14" rx="5.669" ry="5.669"/></g><g id="shape2785-309" transform="translate(-104.544,1287.8) scale(1,-1)"><title>request-response symbol</title><desc>R</desc><path d="M14.74 640.14 L19.84 640.14" class="st15"/><text x="-642.73" y="-8.12" class="st17" transform="rotate(90) scale(-1,1)">R</text></g><g id="shape2781-315"><text x="598.17" y="81.52" class="st18" transform="rotate(90)">Access <tspan x="607.95" class="st5" dy="1.2em">TAN</tspan> <tspan x="556.82" class="st5" dy="1.2em">(</tspan>registrationToken)</text></g></g><g id="shape2860-319" transform="translate(985.136,-538.807)"><title>agent.2860</title><desc>CWA-Submission Service</desc><path d="M0 640.14 L102.2 640.14 L102.2 594.07 L0 594.07 L0 640.14 Z" class="st2"/><text x="15.84" y="614.4" class="st12">CWA-Submission <tspan x="36.09" class="st5" dy="1.2em">Service</tspan></text></g><g id="group2786-323" transform="translate(393.844,101.33) rotate(-90)"><title>ver/hor channel.2786</title><desc>Submit Diagnosis-Key (TAN, DiagnosisKey)</desc><g id="shape2787-324" transform="translate(4.79616E-014,1280.27) rotate(180)"><title>connection line</title><path d="M0 640.14 L85.04 640.14" class="st13"/></g><g id="shape2788-327" transform="translate(-96.378,1280.27) rotate(180)"><title>connection line.7</title><path d="M0 640.14 L17.01 640.14" class="st13"/></g><g id="shape2789-330" transform="translate(-96.378,5.66929)"><title>channel.18</title><ellipse cx="5.669" cy="634.467" class="st14" rx="5.669" ry="5.669"/></g><g id="shape2790-332" transform="translate(-103.465,1294.45) scale(1,-1)"><title>request-response symbol</title><desc>R</desc><path d="M14.74 640.14 L19.84 640.14" class="st15"/><text x="-642.73" y="-8.12" class="st17" transform="rotate(90) scale(-1,1)">R</text></g><g id="shape2786-338"><text x="607.9" y="81.52" class="st18" transform="rotate(90)">Submit <tspan x="581.22" class="st5" dy="1.2em">Diagnosis</tspan>-Key <tspan x="558.11" class="st5" dy="1.2em">(</tspan>TAN, DiagnosisKey)</text></g></g><g id="group2862-342" transform="translate(96.154,101.33) rotate(-90)"><title>ver/hor channel.2862</title><desc>Access RegistrationToken (teleTAN/TestGUID)</desc><g id="shape2863-343" transform="translate(4.79616E-014,1280.27) rotate(180)"><title>connection line</title><path d="M0 640.14 L85.04 640.14" class="st13"/></g><g id="shape2864-346" transform="translate(-96.378,1280.27) rotate(180)"><title>connection line.7</title><path d="M0 640.14 L17.01 640.14" class="st13"/></g><g id="shape2865-349" transform="translate(-96.378,5.66929)"><title>channel.18</title><ellipse cx="5.669" cy="634.467" class="st14" rx="5.669" ry="5.669"/></g><g id="shape2866-351" transform="translate(-103.465,1294.45) scale(1,-1)"><title>request-response symbol</title><desc>R</desc><path d="M14.74 640.14 L19.84 640.14" class="st15"/><text x="-642.73" y="-8.12" class="st17" transform="rotate(90) scale(-1,1)">R</text></g><g id="shape2862-357"><text x="606.11" y="80.13" class="st18" transform="rotate(90)">Access <tspan x="566.98" class="st5" dy="1.2em">RegistrationToken</tspan> <tspan x="559.89" class="st5" dy="1.2em">(</tspan>teleTAN/TestGUID)</text></g></g></g></svg>